<svg xmlns="http://www.w3.org/2000/svg" version="1.1" xmlns:xlink="http://www.w3.org/1999/xlink" width="1000" height="1000"><g clip-path="url(#SvgjsClipPath1087)"><rect width="1000" height="1000" fill="#ffffff"></rect><g transform="matrix(2.7941633033219495,0,0,2.7941633033219495,50,55.90965538652597)"><svg xmlns="http://www.w3.org/2000/svg" version="1.1" xmlns:xlink="http://www.w3.org/1999/xlink" width="322.1" height="317.87"><svg id="Layer_2" data-name="Layer 2" xmlns="http://www.w3.org/2000/svg" viewBox="0 0 322.1 317.87">
  <defs>
    <style>
      .cls-1 {
        fill: #a4c43a;
      }

      .cls-2, .cls-3 {
        fill: #231f20;
      }

      .cls-4, .cls-5 {
        fill: #fff;
      }

      .cls-5, .cls-6, .cls-3 {
        fill-rule: evenodd;
      }

      .cls-6, .cls-7 {
        fill: #53382e;
      }

      .cls-8 {
        fill: #059c67;
      }

      .cls-9 {
        fill: none;
        stroke: #fff;
        stroke-miterlimit: 10;
        stroke-width: .34px;
      }

      .cls-10 {
        fill: #414042;
      }
    </style>
  <clipPath id="SvgjsClipPath1087"><rect width="1000" height="1000" x="0" y="0" rx="50" ry="50"></rect></clipPath></defs>
  <g id="Layer_1-2" data-name="Layer 1">
    <g>
      <path class="cls-8" d="M53.8,222.62s91-32.23,120.25,23.95c0,0,37.54-17.6,81.81-11.52l5.31-7.25s-32.23-5.31-70.55,9.45c0,0-34.05-38.7-105.24-26.8l-34.05,8.93,2.46,3.24Z"></path>
      <path class="cls-8" d="M75.42,250.71s54.89-29.64,82.07,9.06l12.82-10.23s-39.87-33.92-96.96-.65l2.07,1.81Z"></path>
      <path class="cls-8" d="M146.74,276.99s35.98-22.91,75.47-13.07l23.04-17.22s-41.42-3.5-63.69,6.73c0,0-22.65,8.93-35.47,22.26l.65,1.3Z"></path>
      <path class="cls-8" d="M143.38,275.44l9.84-11.91s-36.5-6.09-53.46,1.55l3.5,2.46s31.07,2.72,40.13,7.9"></path>
      <path d="M161.05,285.38c-67.59,0-122.59-54.99-122.59-122.59s54.99-122.59,122.59-122.59,122.59,54.99,122.59,122.59-54.99,122.59-122.59,122.59ZM161.05,44.61c-65.17,0-118.18,53.02-118.18,118.18s53.02,118.18,118.18,118.18,118.18-53.02,118.18-118.18-53.02-118.18-118.18-118.18Z"></path>
      <path d="M161.05,317.87C72.25,317.87,0,246.57,0,158.94S72.25,0,161.05,0s161.05,71.3,161.05,158.94-72.25,158.94-161.05,158.94ZM161.05,2.93C73.87,2.93,2.93,72.92,2.93,158.94s70.93,156,158.12,156,158.11-69.98,158.11-156S248.23,2.93,161.05,2.93Z"></path>
      <g>
        <path class="cls-1" d="M19.5,103.25l2.51-5.18,6.03,2.93-4.22-6.67,2.82-5.8,4.86,8.2,11.89-.21-2.91,6h-6.54s1.01,1.85,1.01,1.85l3.74,1.82-2.51,5.18-16.69-8.1Z"></path>
        <path class="cls-1" d="M27.8,86.97l2.96-4.93,15.89,9.56-2.96,4.93-15.89-9.56Z"></path>
        <path class="cls-1" d="M32.31,79.16l3.51-4.7,6.95.97-2.88-6.42,3.5-4.68,14.86,11.11-3.4,4.55-7.22-5.4,2.74,6.51-.05.06-7.01-.81,7.22,5.4-3.37,4.51-14.86-11.11Z"></path>
        <path class="cls-1" d="M45.29,61.73l4.35-4.17,7.9,5.24-4.68-8.4,3.54-3.39,8.19,5.04-4.9-8.12,4.29-4.11,9.23,17-3.81,3.65-7.9-4.51,4.16,8.09-3.81,3.65-16.57-9.97Z"></path>
        <path class="cls-1" d="M70.92,39.04l4.98-3.45,15.93,11.66-5.02,3.48-2.17-1.72-4.34,3.01.87,2.62-4.93,3.42-5.32-19.01ZM81.22,46.22l-3.91-3.16,1.61,4.75,2.3-1.59Z"></path>
        <path class="cls-1" d="M83.45,30.78l4.86-2.5,8.3,4.55-3.59-6.98,5-2.57,8.48,16.5-4.6,2.36-8.72-4.79,3.77,7.33-5.03,2.58-8.48-16.5Z"></path>
        <path class="cls-1" d="M109.81,31.6l-9.66-9.27,5.91-2.15,4.49,4.86.35-6.61,5.81-2.11-1.51,13.27,2.25,6.21-5.41,1.96-2.23-6.16Z"></path>
        <path class="cls-1" d="M118.58,16.01l5.57-1.48,4.76,17.93-5.57,1.48-4.76-17.93Z"></path>
        <path class="cls-1" d="M133.74,12.32l6.21-.78c6.53-.82,10.27,2.2,10.96,7.67l.05.39c.69,5.47-2.19,9.52-8.82,10.35l-6.08.77-2.32-18.4ZM140.09,16.62l1.05,8.36.66-.08c2.35-.3,3.75-1.62,3.38-4.49l-.05-.37c-.37-2.92-2.04-3.8-4.39-3.51l-.66.08Z"></path>
        <path class="cls-1" d="M158.54,9.95l6.05.1,6.15,18.77-6.1-.1-.76-2.66-5.27-.08-.82,2.64-6-.1,6.75-18.56ZM162.72,21.79l-1.33-4.85-1.46,4.8,2.8.04Z"></path>
        <path class="cls-1" d="M172.81,10.53l5.73.54-1.74,18.46-5.73-.54,1.74-18.46Z"></path>
        <path class="cls-1" d="M181.57,11.28l7.55,1.38c2.83.52,4.67,1.58,5.68,3.03.88,1.27,1.2,2.75.86,4.65l-.03.16c-.48,2.63-2.05,4.1-4.12,4.77l2.49,7.13-6.35-1.16-1.88-5.84-.92-.17-.97,5.32-5.64-1.03,3.34-18.24ZM187.44,21.43c1.26.23,2.2-.3,2.43-1.58l.02-.13c.24-1.33-.45-2.1-1.69-2.33l-1.86-.34-.74,4.04,1.84.34Z"></path>
        <path class="cls-1" d="M200.6,27.66l-2.08-13.22,6.01,1.87.63,6.58,4.28-5.05,5.91,1.84-9.23,9.64-1.96,6.3-5.5-1.71,1.95-6.25Z"></path>
        <path class="cls-1" d="M223.56,23.16l11.99,5.93-2.23,4.51-6.83-3.38-1.08,2.19,6.31,3.12-2.07,4.18-6.31-3.12-2.84,5.75-5.16-2.55,8.23-16.63Z"></path>
        <path class="cls-1" d="M242.66,33.31l5.07,3.31-4.8,19.15-5.11-3.34.78-2.66-4.42-2.89-2.1,1.8-5.02-3.28,15.6-12.09ZM239.89,45.56l1.45-4.81-3.8,3.28,2.34,1.53Z"></path>
        <path class="cls-1" d="M255.13,41.79l4.42,3.85-1.49,6.86,6.61-2.4,4.4,3.83-12.19,14-4.28-3.73,5.92-6.8-6.7,2.25-.06-.05,1.33-6.93-5.92,6.8-4.24-3.69,12.19-14Z"></path>
        <path class="cls-1" d="M271.5,56.59l9.09,10.21-3.64,3.24-5.29-5.95-1.58,1.41,4.91,5.51-3.33,2.96-4.91-5.51-1.66,1.48,5.39,6.05-3.64,3.24-9.17-10.31,13.86-12.34Z"></path>
        <path class="cls-1" d="M282.57,69.25l4.42,6.28c1.66,2.36,2.22,4.4,1.92,6.14-.26,1.52-1.07,2.81-2.65,3.92l-.13.09c-2.19,1.54-4.33,1.48-6.28.51l-3.23,6.83-3.71-5.28,2.75-5.49-.54-.76-4.42,3.11-3.3-4.69,15.17-10.67ZM279.64,80.6c.74,1.05,1.78,1.33,2.84.58l.11-.08c1.1-.78,1.15-1.82.43-2.84l-1.09-1.55-3.36,2.36,1.07,1.53Z"></path>
        <path class="cls-1" d="M278.17,91l4.93.48c-.33,2.24-.03,4.29.82,5.86.49.91,1.01,1.09,1.45.85l.05-.03c.49-.26.5-.91.13-2.65-.8-3.81-1.02-6.96,2.1-8.65l.09-.05c3.08-1.66,6.59-.51,8.72,3.43,1.36,2.51,1.92,4.84,1.47,7.51l-4.94-.39c.22-1.66,0-3.51-.76-4.92-.41-.75-.93-.95-1.33-.74l-.05.03c-.49.26-.48.9-.14,2.8.88,3.86.9,6.9-2.11,8.53l-.07.04c-3.29,1.78-6.77.3-8.85-3.55-1.51-2.79-2.11-5.68-1.53-8.57Z"></path>
        <path class="cls-1" d="M293.23,101.96c.94,1.48,1.96,2.02,3.06,1.56l-.98-2.22,5.21-2.3,2.32,5.27-4.17,1.84c-3.57,1.57-5.6-.1-7.15-2.91l1.71-1.25Z"></path>
      </g>
      <g>
        <path class="cls-10" d="M42,210.01c1.32,3.4.06,5.9.06,5.9l-3.14-.57s.81-2.08.07-3.98c-1.02-2.63-3.45-3.13-5.43-2.36-2.04.79-3.61,2.95-2.62,5.48.81,2.07,3.11,2.99,3.11,2.99l-1.79,2.68s-3.06-1.05-4.45-4.64c-1.67-4.3.26-8.39,4.33-9.97,4-1.55,8.26.33,9.87,4.46Z"></path>
        <path class="cls-10" d="M47.9,222.78c2.09,3.93.71,8.35-3.02,10.33-3.82,2.03-8.33.75-10.42-3.18-2.09-3.93-.63-8.39,3.18-10.42,3.73-1.98,8.17-.66,10.25,3.27ZM37.37,228.38c1.04,1.95,3.54,2.62,5.76,1.44,2.13-1.13,2.9-3.55,1.86-5.49-1.04-1.95-3.47-2.66-5.59-1.53-2.22,1.18-3.06,3.63-2.02,5.58Z"></path>
        <path class="cls-10" d="M56.32,236.47c2.56,3.64,1.74,8.2-1.71,10.63-3.54,2.49-8.17,1.78-10.74-1.86s-1.68-8.24,1.86-10.74c3.45-2.43,8.02-1.67,10.58,1.97ZM46.57,243.35c1.27,1.8,3.84,2.16,5.89.71,1.97-1.39,2.43-3.88,1.16-5.68-1.27-1.8-3.77-2.21-5.74-.82-2.05,1.45-2.58,3.99-1.31,5.79Z"></path>
        <path class="cls-10" d="M61.82,244.24l4.06,4.58c1.9,2.14,1.61,4.99-.61,6.95-2.22,1.97-5.11,1.94-7.01-.21l-1.67-1.88-3.41,3.02-2.39-2.7,11.03-9.77ZM60.07,252.97c.83.94,1.88.84,2.76.07.88-.78,1.07-1.77.28-2.67l-1.22-1.37-2.99,2.65,1.17,1.33Z"></path>
        <path class="cls-10" d="M70.26,253.53l6.74,6.31-2.11,2.26-4.11-3.84-1.83,1.96,3.28,3.07-2.11,2.26-3.28-3.07-1.9,2.03,4.32,4.04-2.11,2.26-6.95-6.51,10.07-10.76Z"></path>
        <path class="cls-10" d="M78.74,261.33l4.07,3.13c1.19.92,1.7,1.44,2.06,2.02.93,1.52.85,3.36-.45,5.06-.96,1.24-2.59,2.15-4.2,1.84l-.03.03s0,.34-.1,1.04l-.87,5.83-3.19-2.45.95-5.53-1.34-1.03-3.03,3.94-2.86-2.2,8.98-11.69ZM78.78,269.78c.92.7,1.88.64,2.59-.3.68-.88.75-1.66-.68-2.76l-.96-.74-2.19,2.84,1.24.96Z"></path>
        <path class="cls-10" d="M89.72,283.23l-3.91-2.41-2.38,2.16-3.16-1.95,11.99-9.91,3.23,1.99-3.47,15.16-3.16-1.95.85-3.11ZM92.1,274.97s-1.12,1.2-1.84,1.84l-2.22,1.99,2.47,1.52.8-2.87c.26-.93.82-2.47.82-2.47l-.04-.02Z"></path>
        <path class="cls-10" d="M101.94,280.17l-4.02-1.96,1.35-2.78,11.28,5.5-1.35,2.78-4.02-1.96-5.1,10.46-3.24-1.58,5.1-10.46Z"></path>
        <path class="cls-10" d="M111.91,281.35l3.35,1.34-5.46,13.69-3.35-1.34,5.46-13.69Z"></path>
        <path class="cls-10" d="M116.27,283.26l3.74,1.16v8.78c0,.97-.17,2.43-.17,2.43h.04s.68-1.29,1.23-2.09l5-7.23,3.68,1.14-9.31,12.54-3.58-1.11-.62-15.61Z"></path>
        <path class="cls-10" d="M130.84,287.59l9.04,1.86-.62,3.03-5.51-1.13-.54,2.62,4.4.9-.62,3.03-4.4-.9-.56,2.72,5.79,1.19-.62,3.03-9.32-1.91,2.96-14.42Z"></path>
        <path class="cls-10" d="M146.72,300.53s1.54,1.65,3.39,1.79c.74.06,1.56-.17,1.63-1.05.13-1.75-6.48-2.2-6.13-6.71.21-2.71,2.63-4.32,5.54-4.09,3.16.25,4.59,2.03,4.59,2.03l-1.75,2.82s-1.38-1.41-3.14-1.54c-.74-.06-1.59.21-1.65,1.03-.14,1.85,6.49,2.03,6.13,6.67-.19,2.44-2.22,4.41-5.53,4.16-3.45-.27-5.2-2.51-5.2-2.51l2.1-2.59Z"></path>
        <path class="cls-10" d="M164.65,290.78c4.45-.12,7.79,3.09,7.91,7.31.12,4.33-3.05,7.79-7.49,7.91-4.45.12-7.8-3.17-7.91-7.49-.11-4.22,3.05-7.61,7.5-7.73ZM164.97,302.71c2.2-.06,3.92-2,3.85-4.52-.06-2.41-1.89-4.17-4.09-4.11-2.2.06-3.93,1.92-3.86,4.33.07,2.51,1.89,4.36,4.1,4.3Z"></path>
        <path class="cls-10" d="M180.73,289.34c3.61-.53,5.76,1.26,5.76,1.26l-1.26,2.93s-1.85-1.25-3.86-.95c-2.79.41-3.81,2.66-3.51,4.76.32,2.16,2.07,4.17,4.76,3.78,2.2-.32,3.61-2.36,3.61-2.36l2.21,2.34s-1.7,2.75-5.51,3.3c-4.56.67-8.12-2.12-8.75-6.44-.62-4.24,2.16-7.97,6.54-8.62Z"></path>
        <path class="cls-10" d="M188.28,288.19l3.51-.81,3.31,14.36-3.52.81-3.31-14.36Z"></path>
        <path class="cls-10" d="M194.76,286.69l8.82-2.72.91,2.95-5.37,1.66.79,2.56,4.29-1.32.91,2.95-4.29,1.32.82,2.66,5.65-1.74.91,2.95-9.09,2.8-4.34-14.07Z"></path>
        <path class="cls-10" d="M209.57,284.94l-4.13,1.71-1.18-2.85,11.59-4.8,1.18,2.86-4.13,1.71,4.45,10.75-3.33,1.38-4.45-10.75Z"></path>
        <path class="cls-10" d="M223.75,284.64l-8.37-5.39,3.62-1.92,3.14,2.34c.89.67,1.78,1.46,1.78,1.46l.04-.02s-.16-1.18-.21-2.29l-.21-3.9,3.62-1.92-.21,9.96,2.83,5.33-3.18,1.69-2.83-5.33Z"></path>
        <path class="cls-10" d="M231.83,269.88l2.94-2.09,6.73,9.5,4.91-3.48,1.79,2.52-7.85,5.56-8.52-12.02Z"></path>
        <path class="cls-10" d="M240.86,263.25l2.79-2.28,9.33,11.4-2.79,2.28-9.33-11.4Z"></path>
        <path class="cls-10" d="M246.55,258.68l2.78-2.76,5.9,2.91c.9.44,2.24,1.2,2.24,1.2l.03-.03s-.75-1.34-1.19-2.25l-2.86-5.92,2.78-2.76,11.22,9.61-2.56,2.54-4.99-4.39c-.84-.73-1.74-1.75-1.74-1.75l-.03.03s.74,1.44,1.16,2.33l1.91,4.12-2.19,2.18-4.1-1.94c-.89-.43-2.33-1.18-2.33-1.18l-.03.03s1.02.91,1.74,1.75l4.35,5.03-2.57,2.55-9.51-11.31Z"></path>
        <path class="cls-10" d="M258.52,246.22l2.31-2.77,11.32,9.43-2.31,2.77-11.32-9.43Z"></path>
        <path class="cls-10" d="M266.91,240.64l-2.6,3.63-2.51-1.8,7.3-10.2,2.51,1.8-2.6,3.63,9.46,6.77-2.1,2.93-9.46-6.77Z"></path>
        <path class="cls-10" d="M269.72,231.13l4.65-7.97,2.67,1.56-2.84,4.86,2.31,1.35,2.27-3.88,2.67,1.56-2.26,3.88,2.4,1.4,2.98-5.11,2.67,1.56-4.8,8.22-12.73-7.43Z"></path>
        <path class="cls-10" d="M275.49,221.14l2.16-4.77c1.91-4.22,5.6-5.81,9.82-3.89,4.22,1.91,5.51,5.76,3.6,9.98l-2.16,4.77-13.42-6.08ZM288.19,221.31c1.03-2.27.31-4.27-2.26-5.44-2.55-1.16-4.52-.31-5.52,1.91l-.61,1.35,7.79,3.53.61-1.35Z"></path>
      </g>
      <path class="cls-8" d="M196.42,111.42s5.86,7.67,3.37,27.11l1.32,1.83,1.76-8.93,8.31,9.97-2.52-9.74,15.23,6.55-9.61-10.06,16.23-5.45-15.45-3.14,6.6-10.56s-6.34-.2-8.87,3.1l-3.87,3.67-.08-8.99-7.18,7.47-5.25-2.84Z"></path>
      <path class="cls-8" d="M184.06,58.21s3.9,4.09,3.69,15.58l.89.98.46-5.32,5.48,5.28-2.09-5.51,9.29,2.84-6.23-5.25,9.1-4.21-9.2-.85,3.17-6.57s-3.71.29-4.97,2.37l-2.02,2.38-.62-5.23-3.71,4.81-3.24-1.32Z"></path>
      <path class="cls-8" d="M137.3,83.31s-2.3-4.15.32-13.43l-.51-.99-1.5,4.22-3.33-5.45.52,4.92-6.94-4.29,3.95,5.59-8.29,1.48,7.29,2.64-3.98,4.66s3.08.55,4.54-.87l2.15-1.5-.61,4.38,4.04-3.12,2.35,1.76Z"></path>
      <path class="cls-8" d="M155.96,135.66s-8.33-4.86-13.41-23.79l-1.92-1.19,1.77,8.93-11.48-6.06,6.03,8.04-16.58-.27,12.71,5.66-12.94,11.21,15.48-2.97-2.1,12.27s5.95-2.23,7.03-6.23l2.19-4.86,3.49,8.28,3.8-9.65,5.93.64Z"></path>
      <path class="cls-5" d="M137.71,145.03s-.57.48-1.08,1.32l.75.46.69-.79-.36-.99Z"></path>
      <path class="cls-5" d="M72.41,210.72l-.06-.17s2.96,5.11.06.17"></path>
      <path class="cls-5" d="M57.11,190.93c.15-.59,1.1-3.27,1.47-4.09.31-.71,1.21-5,1.61-7.46l-1.61-25.3,5.54-3.61s9.05,1.88,15.04,1.5c3.58-.23,26.44-1.29,37.11-1.79l-.03-.41,3.33-.19,3.4.54s2.67.18,4.1-.26c1.74-.58,3.22-.82,3.22-.82l.52,1.39c.72-.12,1.48-.29,2.27-.5,2.37-.64,2.15-6.48,4.79-7.36,1.82-.6,8.17-1.76,9.92,2.65,1.63,3.71-.61,14.05-.61,14.05l-.16,2.01s-.38,1.71-.06,2.5c0,0,.98,2.54-.85,3.25l-5.78.06-.62-.02s-.83.48-1.12,1.39c-1.58,4.95-6.57,20.7-8.78,21.44-2.61.88-7.23-.13-7.23-.13l-1.68-.93s-8.81-3.54-11.23-3.26c-2.42.29-8.86,1.94-8.86,1.94l-6.37.83s-7.42-2.22-9.07-2.64c-1.4-.23-3.09-.95-4.44-.89-.02.02-.11.02-.3.06-1.74.35-3.26,2.21-8.6,3.54-1.05.1-1.88,4.48-2.03,5.13-.15.65-1.45,5.83-.71,8.4.74,2.58-.32,2.87,2.93,8.4.07.12.14.24.21.35l.24.72-4.68.08s.1-1.15-.12-1.62c0,0-.31-.4-.77.39,0,0-1.24-6.64-1.42-7.52-.11-.55-.68-3.65-1.1-5.88-.25-1.31-.57-1.82-.37-2.39,0,0-.92,1.49-1.18,2.64-.26,1.16-.86,5.44-.71,6.3.15.86,1,4.91,1,4.91,0,0,1.33,2.73,1.07,3.67l-3.94,1.24s-.49-2.07-.32-2.32c.17-.25-.65.06-.65.06l-.23-.08-.16-2.42-.26-5.57-.77-6.35s-1.07-5.06-.92-5.65"></path>
      <path class="cls-5" d="M123.78,190.15s.1,1.89-2.05,8.45c-2.15,6.56-.79,12.38.73,13.47l-6.11.94s.21-1.19-.07-1.32c-.22-.11-.69.59-.69.59,0,0,.15-5.33.58-7.26,0,0,.24-9.23-2.07-10.96,0,0-.82-5.05-1.12-6.54,0,0-.85-1.67-2.35-1.8-1.51-.13-1.02-1.55-1.02-1.55l15.89,3.36-1.71,2.62Z"></path>
      <path class="cls-3" d="M62.37,161.91c-.99.28-1.37.89-1.13,1.71.56,1.92-.02,3.6-.88,5.26-.26.52-.19,1.24-.54,2.12-.29-2.15-.78-4.15-1.03-6-.43-3.23-.82-6.46-1.32-9.68-.23-1.46.37-2.4,1.55-3.02,1.19-.63,2.4-1.24,3.66-1.69.61-.22,1.38-.23,2.05-.13.81.12.35,1.41-.32,1.48-1.83.03-4.21,1.28-3.79,2.53.52,1.2,2.59-.39,4.23-.1,1.26.23,1.76.83,2.26,1.62,1.21,1.92-1.47,3.02-1.69,4.28-.17,1.07,1.66.36,2.08.86.44.53.38,1.46.56,2.21.36,1.54-1.45,6.04-3.03,5.88-3.79-.37-.71-7.97-2.67-7.35"></path>
      <path class="cls-3" d="M146.92,161.8c-1.11-1.74-1.42-3.22-1.62-4.82-.21-1.65-.21-2.95-.02-4.6.09-.7.79-1.78,1.15-2.41.99-1.74,1.66-3.44.11-5.23-.12-.15-.12-.43-.15-.65.05-.32.23-.38.42-.23.33.46.73.87.97,1.37.83,1.73,1.76,2.1,3.5,1.31,1.91-.87,4.13-.44,5.6,1.07.74.76.87,1.63.06,2.34-1.15,1-2.36,1.95-3.66,2.75-.51.31-1.33.25-1.98.18-.85-.09-1.67-.36-2.88-.64-.5,3.22-.98,6.34-1.48,9.56"></path>
      <path class="cls-3" d="M137.03,164.42c.63-2.86,2.78-6.26,2.65-8.93-.09-1.69-.06-1.23-.25-3.16-.16-.69-1.29-2.84-1.71-3.43-1.17-1.62-2.67-1.82-1.33-3.77.11-.16.08-.42.08-.65,0-.25-.19-.53-.44-.2-.28.46-.63.94-.82,1.46-.65,1.8-1.54,2.27-3.34,1.67-1.99-.66-4.15,0-5.46,1.65-.66.84-.7,1.71.19,2.33,1.25.88,2.55,1.7,3.92,2.36.54.26,1.35.11,1.99-.03.83-.18,1.21-.39,2.38-.79.83,3.15,1.29,8.34,2.12,11.49"></path>
      <path class="cls-2" d="M146.43,143.29s-.03-.03-.08-.09c-.06-.05-.12-.15-.24-.23-.12-.09-.26-.21-.44-.3-.09-.05-.18-.11-.29-.16-.11-.05-.22-.1-.33-.15-.23-.11-.49-.18-.76-.28-.28-.07-.57-.16-.89-.21-.16-.03-.31-.06-.47-.08-.16-.02-.33-.04-.49-.06-.16-.02-.33-.02-.5-.03-.16,0-.34-.02-.5-.01-.34.02-.67.02-1.01.07-.16.02-.33.04-.49.07-.16.04-.32.07-.47.11-.31.06-.6.18-.87.27-.28.09-.52.24-.75.34-.22.11-.41.26-.58.37-.17.1-.3.23-.41.33-.21.2-.33.32-.33.32,0,0,.15-.08.4-.22.12-.07.27-.16.45-.23.09-.04.19-.08.29-.12.1-.05.2-.1.32-.13.11-.04.23-.08.36-.12.12-.04.25-.09.38-.12.27-.06.54-.14.84-.18.15-.02.3-.05.45-.07.15-.01.31-.03.46-.04.31-.04.63-.03.95-.05.16,0,.32,0,.48,0s.32,0,.48.02c.16.01.31.02.47.03.15.01.3.03.45.05.3.03.59.08.86.12.14.03.27.06.39.08s.25.05.37.09c.12.03.23.06.34.09.11.03.2.07.3.1.19.06.34.13.47.19.13.05.22.13.29.16.07.04.1.06.1.06"></path>
      <path class="cls-3" d="M139,163.08c.12-.45.91-.8,1.36-.91.57-.14,1.3-.12,1.86-.05.14.02.96-.05,1.1-.08.55-.12,1.09-.17,1.67-.08.46.07,1.27.35,1.43.79.07.19-.02.67-.22.78-.14.07-.59,0-.78.02-.6.05-1.1.3-.6.85.29.31,1.02.32,1.06.84.05.71-.46,2.01-1.7,1.88-1.49-.16-2.38-.06-2.81.06-1.48.39-1.7-1.03-1.71-1.74,0-.52.83-.52,1.09-.86.45-.59-.07-.8-.67-.79-.19,0-.63.11-.78.05-.21-.09-.34-.57-.29-.76"></path>
      <path class="cls-7" d="M146.91,162.14s0,.07,0,.2c0,.13-.02.32-.02.57s0,.54.06.88c.05.34.17.71.23,1.11.03.2.04.41,0,.62-.02.1-.05.21-.08.3-.05.11-.1.21-.16.3-.25.38-.67.63-1.16.76-.48.13-1.02.16-1.55.16-.54,0-1.09-.04-1.66-.04-.57,0-1.12.06-1.66.09-.54.03-1.07.04-1.58-.03-.5-.07-.98-.19-1.35-.46-.36-.28-.64-.64-.71-1.03-.08-.39.04-.75.16-1.07.12-.31.24-.58.33-.8.09-.23.15-.41.18-.54.03-.13.04-.2.04-.2,0,0-.02.07-.06.19-.04.12-.11.3-.21.52-.11.22-.25.48-.38.79-.04.08-.07.16-.1.24-.02.04-.03.09-.05.13-.02.05-.03.1-.04.14-.05.19-.07.41-.03.62.07.44.36.85.75,1.17.4.32.92.48,1.44.54.53.07,1.08.07,1.62.05.55-.02,1.1-.07,1.65-.07.54,0,1.1.03,1.65.03.55,0,1.1-.04,1.62-.19.26-.07.51-.18.73-.33.22-.15.4-.34.54-.56.07-.11.12-.23.16-.33.05-.13.07-.24.08-.36.03-.24,0-.47-.03-.67-.07-.42-.22-.78-.29-1.1-.07-.33-.09-.62-.11-.86-.02-.48-.03-.76-.03-.76"></path>
      <path class="cls-2" d="M139.46,167.1c-.18.19-.28.26-.55.65-.28.39-.58.89-.89,1.48-.3.6-.61,1.29-.9,2.05-.29.77-.58,1.61-.86,2.49-.14.45-.28.9-.42,1.37l-.11.35c-.03.12-.07.24-.11.37-.07.24-.14.48-.21.72-.29.95-.62,1.95-.97,2.95-.35,1-.71,2.02-1.07,3.04-.35,1.01-.75,2-1.21,2.93-.23.46-.48.91-.75,1.34-.26.42-.55.83-.86,1.19-.62.73-1.35,1.3-2.14,1.65-.79.35-1.62.48-2.4.47-.78,0-1.5-.13-2.13-.27-.63-.15-1.18-.33-1.62-.48-.44-.16-.79-.29-1.03-.39-.24-.1-.36-.15-.36-.15,0,0,.11.07.33.21.22.13.54.32.97.54.43.22.95.47,1.59.69.63.23,1.38.43,2.22.5.84.08,1.8,0,2.74-.35.47-.18.93-.42,1.36-.72.43-.3.82-.66,1.19-1.06.36-.39.69-.83,1-1.28.3-.46.57-.93.82-1.42.49-.98.93-1.99,1.27-3.04.35-1.02.71-2.04,1.04-3.07.32-1.03.62-2.03.88-3.04.06-.25.12-.49.17-.73.03-.12.06-.24.08-.35.03-.12.06-.24.09-.36.12-.47.24-.94.35-1.39.23-.9.44-1.75.68-2.52.23-.77.47-1.47.71-2.08.24-.61.48-1.12.71-1.53.23-.41.25-.47.39-.75"></path>
      <path class="cls-5" d="M147.56,151.7c-.16.93,0,.96.12,1.02.21.11.5-.24.68-.7.19-.47.16-.92-.07-1.01-.22-.09-.66.19-.74.69"></path>
      <path class="cls-6" d="M147.69,151.95c-.15.62-.13.78.06.85s.49-.26.62-.58c.13-.33.08-.65-.11-.73s-.5.11-.58.46"></path>
      <path class="cls-5" d="M136.29,151.9c.27.91.11.95-.04,1.03-.23.12-.59-.2-.85-.65s-.27-.9-.02-1.01c.25-.11.77.14.91.62"></path>
      <path class="cls-6" d="M136.16,152.16c.23.61.22.77.02.85-.21.09-.59-.21-.77-.53s-.16-.65.05-.73c.21-.09.58.07.71.41"></path>
      <path class="cls-2" d="M128.02,149.55s-.05.01-.13.05c-.1.02-.21.06-.35.11-.14.05-.34.09-.55.14-.21.04-.38.1-.63.12-.25.02-.53.04-.82.05-.29,0-.6,0-.92,0-.64-.03-1.32-.08-2-.18-.33-.05-.69-.09-1.01-.16-.33-.06-.67-.11-.99-.16-.33-.04-.64-.09-.95-.1-.15,0-.3-.02-.44-.02-.14,0-.28.01-.41.02-.27,0-.51.05-.72.08-.21.02-.39.07-.54.12-.3.08-.47.13-.47.13,0,0,.18,0,.48-.02.15,0,.33-.02.54-.02.11,0,.21,0,.33,0,.12,0,.24,0,.37.02.13.01.26.02.4.03.14.02.28.04.42.06.15.02.3.04.44.07.15.03.31.06.47.09.32.07.64.14.98.2.34.07.67.12,1.03.18.35.04.7.08,1.05.1.34.03.69.02,1.02.02.33,0,.65-.03.95-.07.3-.03.59-.08.85-.14.26-.06.5-.13.7-.21.2-.08.37-.16.51-.24.14-.07.23-.14.3-.19.07-.05.1-.07.1-.07"></path>
      <path class="cls-2" d="M78.34,151.89s-.21,0-.57,0c-.18,0-.4,0-.65,0-.25,0-.53,0-.85-.02-.31,0-.64-.02-.99-.03-.35-.02-.72-.05-1.11-.07-.39-.02-.78-.04-1.19-.08-.4-.04-.81-.07-1.22-.11-.41-.04-.82-.09-1.22-.13-.2-.02-.4-.04-.6-.06-.2-.03-.39-.06-.58-.08-.38-.05-.75-.1-1.1-.15-.35-.06-.68-.12-.98-.17-.3-.06-.58-.09-.83-.15-.24-.05-.46-.1-.63-.14-.35-.07-.56-.11-.56-.11,0,0,.2.06.54.16.17.05.38.11.63.18.24.08.52.13.82.2.3.07.63.14.98.21.35.06.72.12,1.1.19.19.03.39.06.58.09.2.02.4.05.6.07.41.05.82.1,1.23.14.41.03.83.06,1.23.1.4.04.8.04,1.19.06.39,0,.76.03,1.12.03.35,0,.69-.01,1-.02.31,0,.59,0,.85-.03.25-.02.47-.03.65-.05.36-.03.57-.05.57-.05"></path>
      <path class="cls-2" d="M124.85,180.77s-.03.01-.08.05c-.05.04-.12.11-.2.21-.16.19-.37.5-.62.89-.25.4-.53.89-.85,1.46-.31.57-.66,1.22-1.02,1.94-.35.72-.74,1.49-1.1,2.36-.02.06-.04.11-.06.18l-.05.17c-.03.11-.07.22-.1.34-.07.23-.13.46-.2.7-.13.47-.25.96-.33,1.46-.04.25-.08.52-.11.76-.03.25-.06.51-.08.77-.05.52-.07,1.05-.1,1.57-.04,1.05-.08,2.12-.13,3.18,0,.13,0,.27-.02.39,0,.13-.02.27-.03.39-.03.24-.08.5-.13.75-.11.5-.25,1.01-.39,1.51-.14.51-.28,1.02-.4,1.53-.06.26-.11.52-.14.78l-.02.2v.05s-.01.06-.01.06v.1c-.02.13-.02.25-.03.38-.07,1.03-.02,2.03.1,2.95.12.93.28,1.79.49,2.58.22.79.49,1.49.78,2.08.29.6.57,1.09.81,1.49.24.4.44.71.58.92.14.21.21.32.21.32,0,0-.24-.48-.64-1.32-.2-.42-.43-.94-.66-1.54-.22-.61-.45-1.3-.6-2.07-.15-.78-.28-1.62-.34-2.53-.06-.9-.09-1.85,0-2.82.01-.12.03-.25.04-.38v-.1s.02-.03.02-.03v-.05s.03-.18.03-.18c.04-.24.09-.48.14-.73.11-.49.26-.98.4-1.49.15-.5.3-1.02.4-1.56.05-.27.1-.54.13-.83.02-.15.03-.28.03-.41.01-.15.01-.27.02-.41.05-1.07.04-2.14.06-3.19,0-.53.02-1.04.05-1.55,0-.25.02-.51.04-.76.01-.26.03-.49.06-.74.06-.48.14-.97.23-1.43.05-.24.1-.47.15-.7.02-.11.05-.23.08-.34l.04-.17s.03-.1.05-.15c.3-.84.67-1.64.99-2.37.66-1.46,1.24-2.66,1.69-3.48.22-.41.41-.72.56-.93.07-.1.14-.17.19-.21.05-.04.08-.06.08-.06"></path>
      <path class="cls-2" d="M123.78,190.15s0,.09-.01.26c0,.16-.02.41-.06.72-.03.31-.09.68-.19,1.1-.1.42-.25.89-.41,1.39-.34,1.01-.8,2.16-1.31,3.4-.25.63-.49,1.28-.69,1.97-.19.68-.35,1.4-.43,2.12-.09.71-.14,1.42-.2,2.13-.06.7-.09,1.4-.09,2.07,0,.68.02,1.33.09,1.95.07.62.17,1.2.31,1.72.13.53.3.99.48,1.4.18.4.36.74.54,1,.18.26.34.44.44.57.1.13.15.21.15.21,0,0-.04-.08-.13-.22-.09-.14-.22-.35-.38-.62-.16-.27-.3-.62-.44-1.02-.14-.4-.27-.87-.37-1.39-.1-.52-.17-1.09-.21-1.69-.03-.61-.04-1.24-.02-1.9.02-.66.07-1.35.12-2.04.06-.7.13-1.41.2-2.11.07-.7.22-1.38.39-2.05.18-.67.39-1.32.62-1.94.22-.63.45-1.23.65-1.82.2-.58.37-1.14.52-1.66.29-1.04.42-1.94.43-2.57,0-.31,0-.56,0-.72,0-.17-.01-.26-.01-.26"></path>
      <path class="cls-2" d="M80.36,184.98s.05-.02.15-.05.25-.07.45-.08c.4-.04,1,.06,1.72.29.36.11.75.25,1.2.38.22.06.45.12.69.18.24.06.49.12.74.2,1.01.28,2.14.65,3.37,1.07,1.23.4,2.58.85,4.06,1.14,1.48.3,3.08.43,4.71.41,1.64-.02,3.35-.15,5.05-.53.85-.2,1.68-.45,2.51-.76.41-.15.82-.34,1.21-.49.39-.16.79-.3,1.18-.41.8-.23,1.62-.36,2.41-.29.79.07,1.55.35,2.17.83.29.22.54.51.71.84.18.33.29.69.36,1.07.14.77.14,1.59.21,2.42.03.41.08.83.18,1.24.1.39.19.77.29,1.16.19.76.38,1.5.58,2.22.38,1.44.77,2.79,1.15,4.04.09.31.19.62.27.91.09.3.14.58.19.87.1.57.12,1.13.12,1.65,0,1.04-.09,1.96-.15,2.72-.06.75-.09,1.35-.09,1.76,0,.41,0,.62,0,.62,0,0,0-.21.04-.62.03-.41.11-.99.2-1.75.1-.75.24-1.66.29-2.72.02-.53.03-1.1-.04-1.71-.03-.3-.09-.62-.16-.92-.07-.32-.16-.61-.24-.93-.16-.63-.33-1.28-.5-1.96-.16-.68-.35-1.38-.52-2.1-.17-.72-.35-1.46-.51-2.23-.09-.38-.17-.76-.26-1.15-.08-.37-.12-.75-.15-1.15-.05-.79-.03-1.62-.17-2.5-.07-.43-.2-.89-.42-1.3-.22-.42-.54-.79-.92-1.09-.73-.57-1.64-.91-2.56-.99-.93-.09-1.85.06-2.71.3-.43.13-.85.28-1.26.45-.42.17-.79.34-1.19.49-.79.3-1.59.55-2.4.75-1.62.38-3.28.55-4.88.58-1.61.03-3.15-.02-4.6-.28-1.45-.23-2.8-.61-4.05-.95-1.25-.34-2.41-.64-3.44-.87-.52-.12-1-.19-1.44-.3-.44-.11-.84-.25-1.21-.35-.73-.21-1.33-.29-1.73-.25-.21.02-.35.06-.45.09-.1.04-.15.06-.15.06"></path>
      <path class="cls-2" d="M81.95,184.56s-.04-.02-.12-.06c-.08-.04-.21-.09-.35-.18-.3-.18-.73-.47-1.13-.98-.41-.51-.76-1.21-1.17-2.03-.2-.41-.43-.84-.73-1.27-.31-.42-.71-.83-1.22-1.11-.25-.15-.53-.25-.82-.35-.29-.08-.59-.15-.9-.18-.31-.04-.62-.05-.94-.05-.33,0-.65.04-.98.1-.65.12-1.3.31-1.94.65-.16.09-.31.19-.46.31l-.11.1s-.07.06-.1.1l-.18.18c-.12.12-.24.24-.36.38-.11.14-.23.27-.35.41-.92,1.09-1.69,2.37-2.32,3.72-.63,1.34-1.25,2.68-1.88,4.04-.62,1.36-1.23,2.73-1.76,4.11-.53,1.38-1.01,2.77-1.36,4.14-.09.34-.17.69-.25,1.02-.07.36-.14.67-.2,1.01-.05.34-.11.68-.14,1.02-.03.33-.07.66-.08.99-.08,1.3-.04,2.53.1,3.66.04.28.08.55.12.83.05.26.1.52.15.77.06.25.12.5.17.74.06.24.12.46.18.68.06.22.12.43.19.64.06.2.12.4.19.59.14.38.3.71.43,1.01.28.59.49,1.06.6,1.39.06.17.09.3.11.38.02.09.03.13.03.13,0,0,0-.04-.02-.13s-.03-.22-.08-.39c-.08-.34-.25-.83-.48-1.44-.11-.31-.24-.65-.35-1.01-.06-.19-.1-.39-.15-.59-.05-.2-.1-.42-.14-.64-.05-.22-.1-.45-.14-.68-.04-.24-.08-.48-.13-.72-.03-.25-.07-.51-.11-.78-.03-.25-.05-.53-.08-.8-.08-1.1-.08-2.3.04-3.56.06-.63.16-1.27.27-1.91.06-.32.14-.67.21-.98.09-.33.16-.66.26-.99.39-1.33.84-2.69,1.38-4.04.54-1.35,1.13-2.72,1.74-4.08.31-.68.62-1.36.92-2.03.3-.68.6-1.36.89-2.03.14-.34.31-.66.46-.98.17-.31.33-.63.51-.94.34-.62.74-1.2,1.15-1.74.11-.13.21-.26.32-.4.11-.13.23-.26.34-.39l.17-.19s.06-.07.08-.09l.08-.08c.11-.1.24-.19.37-.27.54-.33,1.16-.53,1.76-.67.31-.07.61-.12.91-.14.3-.02.61,0,.9.02.29.02.57.07.85.14.27.08.53.17.77.3.48.25.86.61,1.17,1,.3.39.54.81.76,1.21.43.8.81,1.51,1.25,2,.43.51.88.79,1.18.95.16.08.28.13.36.17.08.03.13.05.13.05"></path>
      <path class="cls-2" d="M59.1,164.8c-.04.9,0,1.81.12,2.71.1.9.25,1.79.36,2.68.11.89.19,1.77.16,2.66-.02.9,0,1.82.02,2.72.02.9.03,1.8,0,2.68-.03.88-.09,1.76-.27,2.61-.08.41-.2.87-.3,1.3l-.32,1.31c-.22.87-.45,1.73-.71,2.58-.14.43-.27.85-.43,1.26-.15.44-.3.77-.51,1.18-.2.4-.42.83-.57,1.33-.04.12-.07.25-.09.39l-.02.1v.1c-.02.06-.03.11-.03.18-.02.28-.01.52,0,.77.08.98.39,1.86.57,2.72.11.44.19.86.28,1.3.07.44.16.88.22,1.32.14.89.24,1.78.37,2.67l.2,1.34.21,1.33c.13.88.23,1.76.23,2.64,0,.44-.02.9-.02,1.36,0,.23,0,.46.03.7.03.24.07.48.17.73l-.02-.11c0,.09,0,.17-.01.25v.71c.02.32.03.64.05.95.02.32.05.63.09.95.02.16.05.32.08.48s.07.32.16.5l.08.16.15-.08.45-.22s.07-.03.11-.05c.03-.02.07-.02.07-.02,0,0-.02,0-.02-.02,0,0,0,0,0,0,0,.02.01.07.02.11,0,.16.02.34.05.51.03.17.07.34.12.49-.02-.16-.02-.34-.02-.5,0-.17.03-.33.05-.5,0-.05,0-.09,0-.15,0-.03,0-.07-.03-.11-.03-.05-.09-.07-.13-.08-.08-.01-.13,0-.18.01-.05,0-.09.02-.13.03-.17.05-.33.1-.49.16l.23.08c-.05-.11-.09-.26-.11-.4-.03-.15-.05-.3-.07-.45-.03-.31-.05-.62-.07-.93-.01-.31-.02-.62-.02-.94v-.47s.01-.23.01-.23c0-.07,0-.16.02-.21v-.05s-.02-.07-.02-.07c-.06-.17-.08-.38-.09-.59,0-.21,0-.43,0-.65.02-.44.07-.89.1-1.35.06-.93,0-1.85-.09-2.76l-.16-1.35-.14-1.34c-.09-.89-.18-1.8-.3-2.7-.05-.45-.12-.9-.19-1.36-.08-.45-.16-.92-.25-1.35-.19-.91-.47-1.75-.53-2.57-.02-.2-.02-.42,0-.59,0-.04,0-.1.02-.16v-.07s.02-.07.02-.07c.01-.09.04-.18.07-.27.11-.37.3-.75.51-1.15.1-.21.21-.41.3-.64.1-.23.17-.45.25-.66.16-.43.29-.87.43-1.3.26-.88.49-1.76.7-2.64.11-.44.2-.89.3-1.33.1-.44.2-.87.28-1.34.16-.93.21-1.85.21-2.77,0-.92-.06-1.83-.11-2.73-.05-.9-.12-1.79-.15-2.69-.03-.92-.16-1.84-.34-2.72-.18-.89-.39-1.77-.57-2.65-.18-.88-.33-1.76-.39-2.67"></path>
      <path class="cls-2" d="M79.91,185.17s-.03,0-.09.02c-.06.02-.16.02-.26.06-.23.07-.55.22-.93.44-.19.11-.4.24-.63.38-.23.14-.47.29-.74.41-.28.12-.58.25-.9.39-.32.14-.66.25-1.01.39-.35.15-.71.25-1.1.31-.39.07-.82.1-1.26.2-.11.02-.22.06-.33.09h-.04s-.02.02-.02.02l-.03.02-.08.03-.15.07c-.11.05-.23.13-.33.2-.1.08-.2.16-.28.26-.17.19-.29.41-.4.62-.11.22-.21.42-.3.65-.19.43-.37.9-.52,1.37-.16.47-.29.95-.42,1.43-.13.48-.26.96-.39,1.44-.07.24-.14.48-.21.72-.07.24-.14.48-.2.74-.23,1.01-.34,2.03-.36,3.04-.02.5-.02.99,0,1.49,0,.48.03.97.06,1.45.07.95.19,1.87.36,2.73.17.86.41,1.66.67,2.37.26.72.57,1.35.86,1.9.3.54.6.99.85,1.35.13.18.25.34.35.47.11.13.2.25.28.34.15.18.23.28.23.28,0,0-.07-.1-.21-.29-.07-.1-.15-.22-.25-.36-.09-.14-.2-.31-.32-.49-.24-.37-.5-.84-.77-1.39-.25-.56-.53-1.19-.75-1.9-.23-.71-.42-1.5-.57-2.35-.15-.85-.24-1.75-.29-2.68-.05-.93-.04-1.91-.01-2.89.03-.98.14-1.98.37-2.93.05-.24.12-.48.19-.73.07-.24.14-.48.21-.72.13-.49.25-.97.38-1.45.07-.24.13-.48.19-.71.06-.24.13-.47.2-.7.14-.46.29-.89.48-1.33.19-.42.36-.87.61-1.17.06-.08.14-.14.21-.21.07-.06.14-.1.23-.16l.15-.07.07-.03h0s0,0,0,0h.02s.04-.02.04-.02c.1-.03.19-.07.3-.09.4-.1.82-.15,1.23-.23.2-.04.42-.09.61-.16l.14-.05.07-.03.07-.03c.09-.04.18-.08.27-.11.35-.16.69-.29,1-.44.31-.16.6-.31.87-.45.28-.14.52-.31.74-.46.22-.15.42-.29.6-.41.37-.24.67-.41.89-.5.11-.05.2-.06.26-.08.06-.02.09-.03.09-.03"></path>
      <path class="cls-2" d="M64.13,194.78c-.02.33.03.66.11.99s.17.64.25.96c.02.09.04.19.06.28.04.23.06.46.09.69.03.33.07.66.11.99l.16.98c.05.32.1.65.14.98.08.66.17,1.32.31,1.97.07.32.14.65.22.97l.23.97c.08.32.15.64.22.97.07.32.14.65.22.97.16.65.32,1.29.47,1.93.07.32.13.65.17.97.04.32.06.66,0,.96l-.07.38.22-.31c.12-.16.25-.32.39-.46.07-.07.15-.13.23-.16.08-.03.15,0,.19.08.05.08.07.18.08.28.01.1.02.2.02.3,0,.2,0,.41-.03.62.04-.2.08-.4.09-.61,0-.1,0-.21,0-.31,0-.11-.02-.21-.07-.32-.02-.05-.06-.11-.12-.14-.06-.03-.14-.03-.19-.01-.12.03-.21.1-.29.17-.16.14-.3.3-.43.46l.15.07c.07-.34.05-.68.02-1.02-.03-.34-.09-.66-.15-.99-.13-.65-.3-1.3-.45-1.94-.08-.32-.14-.64-.21-.97-.07-.33-.13-.65-.21-.98l-.44-1.94c-.15-.64-.24-1.29-.33-1.95-.05-.33-.1-.66-.16-.99l-.19-.97c-.05-.33-.1-.65-.14-.98-.05-.32-.08-.66-.19-.98-.09-.32-.21-.63-.3-.95-.09-.32-.17-.64-.17-.97"></path>
      <path class="cls-2" d="M67.14,186.87s.04,0,.11.03c.07.02.16.05.28.09.12.05.26.11.42.18.16.08.33.18.53.28.39.21.83.48,1.38.7.27.11.61.18.88.22.32.05.63.07.95.06.31,0,.62-.04.92-.09.3-.05.59-.12.86-.2.54-.16,1.03-.34,1.44-.51.41-.17.75-.31.99-.42.24-.1.38-.17.38-.17,0,0-.15,0-.41.02-.26.02-.64.06-1.08.13-.44.07-.95.17-1.48.26-.13.02-.27.05-.4.07-.13.02-.27.04-.41.06-.27.03-.55.06-.83.06-.28.01-.55,0-.81-.02-.14-.02-.27-.03-.41-.05-.13-.02-.25-.05-.38-.08-.25-.07-.49-.15-.73-.23-.24-.08-.47-.16-.69-.22-.21-.07-.42-.11-.61-.15-.18-.03-.35-.04-.48-.05-.14,0-.24,0-.31.02-.07,0-.11.02-.11.02"></path>
      <path class="cls-3" d="M75.8,187.21c0,.42,1.07,2.75.58,3.12-.62.48-1.71-2.16-1.63-2.64.33.02.6-.29.9-.37l.15-.11Z"></path>
      <path class="cls-3" d="M77.71,186.27c0,.35.88,2.22.48,2.53-.52.4-1.41-1.71-1.35-2.11.3-.06.44-.2.69-.27l.18-.15Z"></path>
      <path class="cls-3" d="M72.74,187.64c-.31.02-.44.09-.79.14-.17.45.34,3.26,1.06,2.92.54-.26-.02-2.76.07-3.17l-.33.11Z"></path>
      <path class="cls-3" d="M64.4,211.62s2.33,1.49,2.36,2.28v.63h-5.99s-.79-.8-.49-2.05c0,0,2.07.23,4.12-.86"></path>
      <path class="cls-3" d="M120.74,211.84s1.55,1.67,2.14,2.28v.63h-5.98s-.79-.8-.49-2.05c0,0,2.29.23,4.34-.86"></path>
      <path class="cls-3" d="M122.21,211.84s2.22,1.49,2.25,2.28v.63h-5.99s-.79-.8-.49-2.05c0,0,2.18.23,4.23-.86"></path>
      <path class="cls-3" d="M72.36,210.55s2.14,1.55,2.17,2.34v.63h-5.99s-.86-.78-.56-2.04c0,0,2.32.16,4.37-.93"></path>
      <path class="cls-4" d="M121.05,212.07s.02.06.06.15c.04.09.11.22.21.36.1.14.24.3.42.43.09.07.19.13.28.18.1.06.19.11.29.17.1.05.18.11.26.18.08.06.15.14.21.21.13.15.22.32.29.47.07.15.11.28.13.38.02.1.03.15.03.15,0,0,.01-.06.02-.16,0-.1,0-.25-.04-.42-.02-.09-.05-.18-.09-.27-.04-.09-.09-.19-.16-.28-.06-.1-.14-.19-.22-.27-.09-.08-.2-.16-.29-.21-.1-.06-.2-.11-.3-.16-.1-.05-.19-.1-.28-.15-.17-.1-.31-.23-.43-.34-.12-.11-.21-.22-.28-.29-.07-.07-.11-.12-.11-.12"></path>
      <path class="cls-4" d="M134.78,151.93s0-.07.01-.21c.01-.13,0-.32.02-.54,0-.11.03-.22.05-.34v-.04s.02-.03.03-.04l.04-.09c.02-.07.05-.13.09-.18.06-.11.14-.25.21-.39.03-.08.05-.14.08-.23l.04-.22c.02-.15.02-.32.03-.47,0-.15,0-.29,0-.43,0-.14,0-.28,0-.41,0-.13-.02-.25-.02-.36,0-.11-.01-.21-.01-.3,0-.09,0-.17.01-.24,0-.07.02-.12.02-.15,0-.04,0-.06,0-.06,0,0,0,.02-.02.05-.01.03-.04.08-.05.15-.04.13-.07.32-.08.55,0,.11-.01.24-.02.36,0,.13-.02.26-.02.41,0,.14-.01.29-.01.43,0,.15,0,.28-.03.43l-.03.22s-.05.12-.07.19c-.06.13-.12.27-.19.39-.03.07-.06.13-.08.2l-.03.1s0,.02-.02.05v.05c-.02.14-.04.26-.02.38,0,.24.05.42.06.55.02.13.03.2.03.2"></path>
      <path class="cls-3" d="M114.09,192.94c.95,0,2.69-.41,3.19.53.65,1.22-.66,1.59-1.07,2.12-.79,1.01.6.7,1.07,2.11.31.93-.8,1.71-1.71,1.75-.75-2.25-.68-3.95-1.48-5.97"></path>
      <path class="cls-7" d="M115.77,208.28c-.02.17-.03.34-.04.5-.02.17-.02.34-.03.5s-.03.33-.04.5c-.02.16-.02.33-.03.5,0,.08,0,.17-.02.24l-.04.25c-.02.17-.06.33-.1.49-.03.16-.06.34-.09.5-.02.08-.02.17-.02.26l-.02.26v.1s.09.01.09.01c.05,0,.1.02.16.01.06,0,.12-.02.17-.05.1-.06.15-.15.2-.22.04-.07.07-.15.11-.21.04-.06.07-.09.12-.1.01,0,.03,0,.04,0h0s.01,0,0,0h0s.03.02.03.02c.02,0,.02.02.03.02,0,.01.02.02.03.04.04.05.06.13.07.21.02.16,0,.32-.02.48.06-.16.1-.32.11-.49,0-.09,0-.18-.04-.27,0-.02-.03-.04-.04-.07-.02-.02-.05-.05-.07-.06l-.03-.02h0s-.01,0-.02,0h-.02s-.05-.02-.08-.02c-.05,0-.11,0-.16.04-.05.03-.08.07-.11.11-.06.07-.1.15-.14.21s-.09.12-.13.13c-.02,0-.04.02-.07.02-.02,0-.06,0-.08-.01l.08.12.03-.25c0-.08,0-.16.03-.24.03-.16.06-.32.09-.49.03-.17.07-.34.09-.5l.03-.25c.01-.09,0-.17,0-.26,0-.17,0-.34,0-.51,0-.17,0-.34,0-.51,0-.17-.02-.34-.04-.5-.02-.17-.03-.34-.05-.5"></path>
      <path class="cls-2" d="M59.81,151.97s-.03,0-.1.03c-.07.02-.16.05-.3.1-.26.09-.63.25-1.07.53-.43.28-.93.68-1.39,1.23-.47.55-.92,1.23-1.32,2.02-.4.79-.73,1.7-.97,2.69-.12.49-.21,1.03-.25,1.55-.03.26-.04.53-.06.8-.02.27-.02.54-.03.82,0,.55,0,1.1,0,1.67.02.56.05,1.12.07,1.7.06,1.14.12,2.29.1,3.43,0,.58-.04,1.14-.1,1.71-.06.56-.15,1.12-.26,1.67-.22,1.11-.54,2.18-.91,3.19-.37,1.01-.79,1.97-1.23,2.86-.44.89-.89,1.71-1.35,2.45-.9,1.48-1.76,2.64-2.38,3.44-.31.4-.57.71-.74.91-.18.21-.27.32-.27.32l.05.04s.1-.11.28-.31c.18-.2.45-.5.77-.89.65-.78,1.55-1.93,2.5-3.39.95-1.46,1.95-3.25,2.74-5.29.4-1.02.74-2.1.99-3.23.13-.57.24-1.13.31-1.72.07-.57.12-1.17.15-1.75.05-1.17.03-2.34,0-3.48-.02-.57-.03-1.13-.05-1.69-.02-.56-.03-1.1-.03-1.64,0-.54.02-1.05.05-1.58.02-.52.1-.99.2-1.48.19-.96.49-1.84.83-2.62s.74-1.46,1.16-2.01c.43-.54.86-.98,1.26-1.27.4-.3.75-.48.99-.6.12-.06.22-.09.29-.12.06-.03.1-.04.1-.04l-.02-.06Z"></path>
      <path class="cls-3" d="M49.94,181.54s.81,3.86-4.27,6.6c0,0,.07-4.24,4.27-6.6"></path>
      <path class="cls-3" d="M74.91,153.65c.83-.65,1.58-1.77,2.62-1.77.59,0,1.44-.04,2.16.01.02,0,.03,0,.05,0,12.02-.28,27.45-1.37,33.33-1.81,1.01-.1,2.02-.19,3.03-.3.9-.11.29.5-.49.76-2.71.89-2.61,1.71-3.08,3.33-.1.34-.1.72-.28,1.01-1.13.91-2.55,4.63-1.99,5.78.51.37,1.11-.04,1.12.51,0,.62-.13,1.13-.43,1.66-.53.94-1.31,1.99-.42,2.83.83.66,2-.97,2.7-1.71,1.05-1.12,1.92-.51,2.82-.02,1.03.56,1.26,1.52,1.07,2.61-.13.73-1.2,1.87-.39,2.21,2.74.35,4.11-5.03,4.86-8.91.45-2.31-.84-2.16-.26-4.67,1.12-5.89,2.33-4.71,3.48-4.75-.12.64,1.06,3.54,6.67,4.62,1.33.26-.31,6.11.11,8.43.32,1.8.76,2.69,3.12,2.64,1.3.12,2.12,3.35-.53,6.79-1.71,2.22-3.14,2.91-4.36,5.01-.38.65-1.07,1.19-1.73,1.59-1.45.89-3.39.06-3.89-1.6-.19-.62.41-2-.52-2.04-1.45-.11.01,3.57-2.1,4.24-1.13-.05-.62-1.1-.98-1.58-.33-.45-.78-.81-1.12-1.25-.3-.38.03-2.04-.83-2-2.16.29-1.48,1.88-1.36,2.33.22.66.54-.33.9-.24,1.3.1,1.47,4.74-.21,5.44-1.49.62-1.72,1.71-2.19,2.86-.15.36-.28.93-.7.93-.59,0-1.41-.23-1.67-.64-.5-.83-2.12-4.94-1.56-7.11.16-.61.31-1.43.77-1.97,2.39-2.8-3.51-3.89-3.54-3.07-.02.74-.29,1.69-.96,2.01-.61.29-1.62-.94-2.67,2.38-.33.62-.38,1.59-1.61,1.28-1.27-.32-1.21-1.14-1.16-2.11.03-.63.38-1.58-.21-1.91-1.11-.19-1.41.54-1.45,2.16-.23,6.23-5.84,4.77-7.33,4.57-.33-.04-.67-.02-1,0-.98.08-2.01.88-2.95.23-.2-.14-.41-.8-.84-.76-.41.08-.41.35-.75.54-.95.53-1.8.3-2.09-.71-.31-1.09.49-2.71-.64-3.48-.57-.39-.99,1.48-1.95.95-1.15-.96-1.03-3.82.48-5.65.36-.6-.11-3.87-2.86-2.83-1.07,1.27-3.34,1.08-3.02-.82-1.22-.53-1.58-1.63-.84-3.03,3.07-5.77,2.63-8.94.2-8.77-.65.14-2.07,1-3.15-.32-.67-.82-.21-3.21.63-3.86"></path>
      <path class="cls-3" d="M71.11,179.33c-.44-.94-1.86-.31-2.35.49-.33.54-.16,1.2-.58,1.7-.41.47-1.16.56-1.72.76-.99.34-2.11.8-2.09,2.05,0,.7.48.87.54,1.43.07.62-.43,1.21-.25,1.75.93,2.7,2.66-1.78,3.12-2.55.7-1.15,2.66-4.38,3.47-5.55l-.13-.07Z"></path>
      <path class="cls-8" d="M139.54,66.6s-7.04,19.08,7.7,47.39c0,0,21.12,39.05,20.42,52.49,0,0,8.12,20.51-12.08,53.8,0,0,21.46-17.65,20.88-52.35,0,0,.68-20.78-21.17-60.56,0,0-16.45-27.57-15.75-40.77"></path>
      <path class="cls-8" d="M183.78,29.88s-20.04,21.34-10.47,60.61c0,0,9.55,37.4,9.26,70.73,0,0,2.93,22.19-25.49,62.52,0,0,31.73-15.23,41.5-58.08,0,0,7.11-25.35-7.75-80.87,0,0-11.9-38.88-7.05-54.9"></path>
      <g>
        <path class="cls-2" d="M179.2,213.58s.31,1.7,3.08,5.35l18.58,21.51,39.78-2.17-21.52-28.38s-4.78-6.88-14.55-6.67l-1.7-4.93s-1.75-7.83-11.17-6.42c0,0-4.54.82-9.35,12.69l.06,1.07s-5.46,2.52-3.19,7.95"></path>
        <path class="cls-2" d="M192.6,190.17s7.52-3.45,11.05,4.28c0,0,1.28.47,1.83-.6l56.51-95.84s-3.14-7.04-5.91-6.67l-63.48,98.83Z"></path>
        <path class="cls-4" d="M198.72,206s-2.39-9.15-9.5-7.45c0,0-.76,1.15.43,1.41,0,0,4.17-2.37,7.12,6.32,0,0,1.32.57,1.96-.28"></path>
        <path class="cls-9" d="M192.03,209.16c1.54,3,1.04,6.33-1.1,7.43-2.14,1.09-5.13-.45-6.66-3.46-1.54-3.01-1.05-6.33,1.1-7.43,2.14-1.1,5.12.45,6.66,3.46Z"></path>
      </g>
    </g>
  </g>
</svg></svg></g></g></svg>